<svg width="21" height="20" viewBox="0 0 21 20" fill="none" xmlns="http://www.w3.org/2000/svg">
<g clip-path="url(#clip0_11_101)">
<path d="M20.849 10C20.849 4.47719 16.3929 0 10.8961 0C5.39931 0 0.943207 4.47719 0.943207 10C0.943207 14.9913 4.58286 19.1284 9.34097 19.8785V12.8906H6.81386V10H9.34097V7.79688C9.34097 5.29063 10.8269 3.90625 13.1004 3.90625C14.1893 3.90625 15.3283 4.10156 15.3283 4.10156V6.5625H14.0733C12.8368 6.5625 12.4512 7.33336 12.4512 8.12422V10H15.2116L14.7704 12.8906H12.4512V19.8785C17.2094 19.1284 20.849 14.9913 20.849 10Z" fill="#1877F2"/>
<path d="M14.7704 12.8906L15.2116 10H12.4513V8.12422C12.4513 7.33328 12.8369 6.5625 14.0733 6.5625H15.3283V4.10156C15.3283 4.10156 14.1893 3.90625 13.1003 3.90625C10.8269 3.90625 9.34098 5.29063 9.34098 7.79688V10H6.81387V12.8906H9.34098V19.8785C9.85543 19.9595 10.3754 20.0001 10.8961 20C11.4169 20.0001 11.9368 19.9595 12.4513 19.8785V12.8906H14.7704Z" fill="white"/>
</g>
<defs>
<clipPath id="clip0_11_101">
<rect width="19.9058" height="20" fill="white" transform="translate(0.943207)"/>
</clipPath>
</defs>
</svg>
