<svg width="47" height="48" viewBox="0 0 47 48" fill="none" xmlns="http://www.w3.org/2000/svg">
<g clip-path="url(#clip0_1_32)">
<rect x="1" y="1" width="46" height="46" fill="#CEE8F5"/>
<path d="M1.33275 23.7149C1.33166 27.6298 2.35457 31.4523 4.29962 34.8216L1.14673 46.3333L12.9275 43.2443C16.186 45.0181 19.8368 45.9476 23.5467 45.9479H23.5565C35.8038 45.9479 45.7734 35.9819 45.7786 23.7325C45.781 17.7967 43.4715 12.2151 39.2754 8.01586C35.0801 3.81694 29.5005 1.50329 23.5556 1.50058C11.3068 1.50058 1.33798 11.466 1.33293 23.7149" fill="url(#paint0_linear_1_32)"/>
<path d="M0.539188 23.7077C0.537924 27.7634 1.5975 31.7227 3.61189 35.2125L0.345947 47.1369L12.5492 43.9373C15.9116 45.7705 19.6973 46.7371 23.5494 46.7385H23.5594C36.2461 46.7385 46.5738 36.4141 46.5792 23.7261C46.5814 17.5771 44.1888 11.7949 39.8429 7.44514C35.4964 3.09597 29.7172 0.699062 23.5594 0.696533C10.8705 0.696533 0.544245 11.0196 0.539188 23.7077ZM7.80666 34.6115L7.35101 33.8882C5.43558 30.8426 4.42459 27.3231 4.42603 23.7091C4.43 13.1631 13.0128 4.58302 23.5666 4.58302C28.6775 4.58518 33.4807 6.57755 37.0934 10.1924C40.7059 13.8076 42.6938 18.6134 42.6925 23.7247C42.6878 34.2707 34.1049 42.8519 23.5594 42.8519H23.5518C20.1181 42.8501 16.7504 41.9279 13.8135 40.1853L13.1146 39.7709L5.87299 41.6695L7.80666 34.6115Z" fill="url(#paint1_linear_1_32)"/>
<path d="M17.8061 14.0876C17.3751 13.1298 16.9217 13.1105 16.5119 13.0937C16.1763 13.0793 15.7927 13.0804 15.4095 13.0804C15.0259 13.0804 14.4027 13.2247 13.8759 13.7999C13.3485 14.3756 11.8625 15.7669 11.8625 18.5967C11.8625 21.4265 13.9237 24.1615 14.2111 24.5457C14.4987 24.9291 18.1902 30.9221 24.0365 33.2276C28.8953 35.1436 29.8841 34.7625 30.9386 34.6664C31.9933 34.5707 34.3418 33.2754 34.821 31.9323C35.3005 30.5894 35.3005 29.4383 35.1567 29.1977C35.0129 28.958 34.6294 28.8141 34.0541 28.5266C33.4789 28.2391 30.6509 26.8474 30.1238 26.6554C29.5964 26.4636 29.213 26.3679 28.8294 26.9438C28.4458 27.5189 27.3444 28.8141 27.0086 29.1977C26.6733 29.5822 26.3375 29.6301 25.7625 29.3424C25.1869 29.0538 23.3345 28.4471 21.1368 26.4878C19.4269 24.9632 18.2725 23.0805 17.937 22.5045C17.6014 21.9295 17.901 21.6178 18.1895 21.3312C18.4479 21.0735 18.7648 20.6595 19.0527 20.3238C19.3395 19.9879 19.4352 19.7482 19.627 19.3646C19.819 18.9807 19.7229 18.6448 19.5793 18.3571C19.4352 18.0694 18.3175 15.2248 17.8061 14.0876Z" fill="white"/>
</g>
<defs>
<linearGradient id="paint0_linear_1_32" x1="2232.74" y1="4484.77" x2="2232.74" y2="1.50058" gradientUnits="userSpaceOnUse">
<stop stop-color="#1FAF38"/>
<stop offset="1" stop-color="#60D669"/>
</linearGradient>
<linearGradient id="paint1_linear_1_32" x1="2312.01" y1="4644.74" x2="2312.01" y2="0.696533" gradientUnits="userSpaceOnUse">
<stop stop-color="#F9F9F9"/>
<stop offset="1" stop-color="white"/>
</linearGradient>
<clipPath id="clip0_1_32">
<rect width="46.245" height="46.5944" fill="white" transform="translate(0.34021 0.696533)"/>
</clipPath>
</defs>
</svg>
