<svg width="158" height="32" viewBox="0 0 158 32" fill="none" xmlns="http://www.w3.org/2000/svg">
<g clip-path="url(#clip0_1_24)">
<path d="M154.41 13.0683L151.515 20.4756H151.428L148.407 13.0683H145.677L150.202 23.4231L147.616 29.1824H150.27L157.247 13.0683H154.41ZM133.952 6.92144H131.424V24.0049H133.952V6.92144ZM124.437 6.92144H118.358V24.0049H120.905V17.538H124.447C125.161 17.5626 125.872 17.4444 126.541 17.1903C127.209 16.9362 127.82 16.5512 128.339 16.0578C128.858 15.5644 129.274 14.9724 129.563 14.316C129.853 13.6597 130.009 12.9522 130.024 12.2345C130.009 11.5156 129.853 10.8067 129.563 10.1492C129.273 9.49169 128.856 8.89855 128.336 8.40423C127.816 7.90991 127.204 7.52426 126.535 7.26966C125.865 7.01506 125.152 6.8969 124.437 6.92144ZM124.504 15.1524H120.905V9.33532H124.514C125.282 9.33532 126.018 9.64177 126.561 10.1873C127.104 10.7327 127.409 11.4726 127.409 12.244C127.409 13.0155 127.104 13.7553 126.561 14.3008C126.018 14.8463 125.282 15.1527 124.514 15.1527L124.504 15.1524ZM140.186 12.6995C139.26 12.6459 138.338 12.865 137.534 13.33C136.73 13.795 136.079 14.4856 135.66 15.3172L137.918 16.2868C138.142 15.8756 138.48 15.5391 138.892 15.3186C139.303 15.0981 139.77 15.0033 140.234 15.0458C140.553 15.0137 140.875 15.0453 141.182 15.1387C141.488 15.2321 141.774 15.3855 142.021 15.59C142.269 15.7945 142.473 16.0462 142.624 16.3305C142.774 16.6148 142.867 16.9261 142.897 17.2467V17.4212C142.088 16.9818 141.183 16.7519 140.263 16.7521C137.841 16.7521 135.37 18.0903 135.37 20.6305C135.37 22.9187 137.349 24.3924 139.588 24.3924C140.225 24.4329 140.861 24.2992 141.428 24.0056C141.996 23.7119 142.473 23.2693 142.81 22.7248H142.907V24.0433H145.378V17.4701C145.378 14.4354 143.119 12.7484 140.205 12.7484L140.186 12.6995ZM139.887 22.0655C139.057 22.0655 137.899 21.6389 137.899 20.6112C137.899 19.2927 139.336 18.7886 140.591 18.7886C141.4 18.7665 142.2 18.9641 142.907 19.3603C142.814 20.1018 142.457 20.7843 141.901 21.2817C141.346 21.779 140.631 22.0575 139.887 22.0655ZM48.3857 24.3731C43.3886 24.3897 39.307 20.3665 39.2278 15.3464C39.3073 10.3262 43.3886 6.30306 48.3857 6.31966C49.5299 6.30041 50.6665 6.51092 51.7286 6.93883C52.7908 7.36675 53.7572 8.00345 54.5713 8.81161L52.8246 10.5472C51.6399 9.38093 50.0443 8.73264 48.3857 8.74368C44.7777 8.74368 41.8527 11.6825 41.8527 15.3076C41.8527 18.9328 44.7777 21.8716 48.3857 21.8716C49.2289 21.9063 50.07 21.7628 50.8546 21.4504C51.6392 21.1381 52.3498 20.6638 52.9405 20.0582C53.7257 19.2075 54.1989 18.1132 54.2819 16.9559H48.3857V14.5614H56.6847C56.7752 15.0701 56.8172 15.5861 56.8101 16.103C56.8936 18.2494 56.1267 20.3414 54.6774 21.9204C53.8592 22.7506 52.876 23.3982 51.7918 23.8208C50.7077 24.2434 49.5471 24.4316 48.3857 24.3731ZM69.6446 18.5556C69.6765 19.3313 69.5521 20.1055 69.2786 20.8316C69.0052 21.5578 68.5885 22.2208 68.0535 22.781C67.5185 23.3412 66.8763 23.787 66.1655 24.0915C65.4547 24.3959 64.69 24.5529 63.9173 24.5529C63.1446 24.5529 62.3799 24.3959 61.6691 24.0915C60.9583 23.787 60.3161 23.3412 59.7812 22.781C59.2462 22.2208 58.8295 21.5578 58.556 20.8316C58.2826 20.1055 58.1581 19.3313 58.19 18.5556C58.1581 17.78 58.2826 17.0058 58.556 16.2797C58.8295 15.5535 59.2462 14.8904 59.7812 14.3303C60.3161 13.7701 60.9583 13.3243 61.6691 13.0198C62.3799 12.7153 63.1446 12.5584 63.9173 12.5584C64.69 12.5584 65.4547 12.7153 66.1655 13.0198C66.8763 13.3243 67.5185 13.7701 68.0535 14.3303C68.5885 14.8904 69.0052 15.5535 69.2786 16.2797C69.5521 17.0058 69.6765 17.78 69.6446 18.5556ZM67.1357 18.5556C67.1781 18.1053 67.1264 17.6511 66.9839 17.222C66.8415 16.7929 66.6114 16.3984 66.3084 16.0638C66.0055 15.7292 65.6363 15.4619 65.2245 15.279C64.8128 15.0961 64.3675 15.0016 63.9173 15.0016C63.4671 15.0016 63.0219 15.0961 62.6101 15.279C62.1984 15.4619 61.8292 15.7292 61.5262 16.0638C61.2232 16.3984 60.9931 16.7929 60.8507 17.222C60.7082 17.6511 60.6566 18.1053 60.699 18.5556C60.6566 19.006 60.7082 19.4602 60.8507 19.8893C60.9931 20.3184 61.2232 20.7129 61.5262 21.0475C61.8292 21.382 62.1984 21.6493 62.6101 21.8323C63.0219 22.0152 63.4671 22.1096 63.9173 22.1096C64.3675 22.1096 64.8128 22.0152 65.2245 21.8323C65.6363 21.6493 66.0055 21.382 66.3084 21.0475C66.6114 20.7129 66.8415 20.3184 66.9839 19.8893C67.1264 19.4602 67.1781 19.006 67.1357 18.5556ZM82.4791 18.5556C82.4791 21.7311 79.9169 24.3051 76.7567 24.3051C73.5965 24.3051 71.034 21.7311 71.034 18.5556C71.034 15.3802 73.5962 12.8062 76.7567 12.8062C79.9172 12.8062 82.4791 15.3802 82.4791 18.5556ZM79.9799 18.5556C80.0224 18.1053 79.9707 17.6511 79.8282 17.222C79.6858 16.7929 79.4557 16.3984 79.1527 16.0638C78.8498 15.7292 78.4806 15.4619 78.0688 15.279C77.6571 15.0961 77.2118 15.0016 76.7616 15.0016C76.3114 15.0016 75.8662 15.0961 75.4544 15.279C75.0427 15.4619 74.6735 15.7292 74.3705 16.0638C74.0675 16.3984 73.8374 16.7929 73.695 17.222C73.5525 17.6511 73.5009 18.1053 73.5433 18.5556C73.5006 19.0061 73.5521 19.4605 73.6944 19.8898C73.8368 20.3191 74.0668 20.7137 74.3698 21.0485C74.6728 21.3832 75.042 21.6507 75.4539 21.8337C75.8657 22.0167 76.3111 22.1113 76.7615 22.1113C77.2118 22.1113 77.6572 22.0167 78.069 21.8337C78.4809 21.6507 78.8501 21.3832 79.1531 21.0485C79.4561 20.7137 79.6861 20.3191 79.8285 19.8898C79.9708 19.4605 80.0226 19.0061 79.9799 18.5556ZM95.0044 13.0972V23.5392C95.0044 27.8245 92.4663 29.5893 89.475 29.5893C88.3784 29.5986 87.3037 29.2812 86.3866 28.6772C85.4694 28.0733 84.7509 27.2098 84.3218 26.1959L86.5124 25.2262C86.7394 25.8183 87.1351 26.33 87.65 26.6974C88.1649 27.0647 88.7762 27.2714 89.4074 27.2916C91.3376 27.2916 92.5147 26.0991 92.5147 23.8785V23.0447H92.4183C92.0397 23.4691 91.5752 23.8071 91.0559 24.0362C90.5366 24.2653 89.9745 24.3802 89.4074 24.3731C86.2095 24.3731 83.6174 21.7686 83.6174 18.5556C83.6174 15.3427 86.2095 12.7382 89.4074 12.7382C89.9782 12.7259 90.5451 12.8352 91.0708 13.0592C91.5965 13.2831 92.0689 13.6165 92.4569 14.0374H92.5532V13.068H95.0044V13.0972ZM92.756 18.5848C92.7915 18.146 92.7388 17.7045 92.6012 17.2865C92.4635 16.8686 92.2437 16.4826 91.9548 16.1516C91.6659 15.8207 91.3137 15.5514 90.9192 15.3598C90.5247 15.1682 90.0959 15.0581 89.6582 15.0362C89.212 15.0512 88.7733 15.1553 88.3677 15.3425C87.962 15.5298 87.5976 15.7964 87.2957 16.1268C86.9938 16.4572 86.7605 16.8448 86.6094 17.2668C86.4583 17.6889 86.3924 18.1369 86.4157 18.5848C86.395 19.0297 86.463 19.4743 86.6156 19.8924C86.7682 20.3106 87.0024 20.6939 87.3044 21.0199C87.6065 21.3459 87.9702 21.6081 88.3744 21.7909C88.7786 21.9738 89.2151 22.0737 89.6582 22.0849C90.0932 22.0679 90.5203 21.9628 90.9139 21.776C91.3075 21.5891 91.6595 21.3243 91.9487 20.9975C92.238 20.6707 92.4586 20.2885 92.5974 19.8739C92.7361 19.4593 92.79 19.0209 92.756 18.5848ZM99.4723 6.94019V24.0144H96.9248V6.9405L99.4723 6.94019ZM109.508 20.4756L111.496 21.7941C110.965 22.5898 110.247 23.2415 109.406 23.6913C108.564 24.1411 107.625 24.3752 106.671 24.3727C105.913 24.3836 105.16 24.2397 104.459 23.9499C103.757 23.66 103.122 23.2302 102.59 22.6864C102.059 22.1425 101.643 21.4961 101.367 20.7861C101.092 20.0761 100.963 19.3173 100.987 18.5556C100.753 15.8449 102.581 13.3892 105.236 12.8483C107.89 12.3073 110.525 13.8536 111.361 16.442L111.622 17.1111L103.902 20.3201C104.142 20.8634 104.539 21.3218 105.041 21.6363C105.543 21.9509 106.128 22.1071 106.719 22.0849C107.282 22.0761 107.833 21.9237 108.321 21.6422C108.809 21.3606 109.217 20.9591 109.508 20.4753M103.419 18.3808L108.611 16.2284C108.41 15.8332 108.098 15.5058 107.714 15.2869C107.33 15.068 106.89 14.9672 106.449 14.9969C106.028 15.0155 105.614 15.1182 105.233 15.2991C104.852 15.48 104.51 15.7354 104.228 16.0504C103.946 16.3654 103.729 16.7337 103.59 17.1338C103.451 17.5339 103.393 17.9578 103.419 18.3808Z" fill="#5F6368"/>
<path d="M13.694 14.8328L0.744186 28.4647C0.889574 28.9825 1.15088 29.4601 1.50813 29.8609C1.86538 30.2618 2.30911 30.5752 2.80541 30.7773C3.3017 30.9794 3.83742 31.0649 4.37161 31.0271C4.90581 30.9893 5.42432 30.8293 5.88753 30.5593L20.4589 22.221L13.694 14.8328Z" fill="#EA4335"/>
<path d="M26.7891 12.5154L20.4877 8.88939L13.3948 15.1432L20.5164 22.2014L26.7699 18.6141C27.3239 18.3226 27.7879 17.8844 28.1117 17.3469C28.4355 16.8094 28.6067 16.1931 28.6067 15.5647C28.6067 14.9364 28.4355 14.3201 28.1117 13.7826C27.7879 13.2451 27.3239 12.8069 26.7699 12.5154H26.7891Z" fill="#FBBC04"/>
<path d="M0.743887 2.59683C0.665848 2.88772 0.626858 3.18778 0.627952 3.48905V27.5728C0.62887 27.874 0.667719 28.1737 0.743887 28.4648L14.1379 15.1823L0.743887 2.59683Z" fill="#4285F4"/>
<path d="M13.7907 15.5308L20.4877 8.88939L5.93525 0.512729C5.38773 0.190483 4.765 0.0197485 4.13046 0.0179051C3.36434 0.0164234 2.61875 0.266707 2.00738 0.730596C1.39601 1.19448 0.9524 1.84653 0.744186 2.5873L13.7907 15.5308Z" fill="#34A853"/>
</g>
<defs>
<clipPath id="clip0_1_24">
<rect width="156.625" height="31.0417" fill="white" transform="translate(0.624954 0.0178986)"/>
</clipPath>
</defs>
</svg>
