<svg width="21" height="20" viewBox="0 0 21 20" fill="none" xmlns="http://www.w3.org/2000/svg">
<g clip-path="url(#clip0_11_94)">
<path d="M15.8256 0H5.25069C2.67405 0 0.585266 2.09867 0.585266 4.6875V15.3125C0.585266 17.9013 2.67405 20 5.25069 20H15.8256C18.4023 20 20.4911 17.9013 20.4911 15.3125V4.6875C20.4911 2.09867 18.4023 0 15.8256 0Z" fill="url(#paint0_radial_11_94)"/>
<path d="M15.8256 0H5.25069C2.67405 0 0.585266 2.09867 0.585266 4.6875V15.3125C0.585266 17.9013 2.67405 20 5.25069 20H15.8256C18.4023 20 20.4911 17.9013 20.4911 15.3125V4.6875C20.4911 2.09867 18.4023 0 15.8256 0Z" fill="url(#paint1_radial_11_94)"/>
<path d="M10.5389 2.1875C8.42713 2.1875 8.16206 2.1968 7.3327 2.23469C6.5049 2.27281 5.93984 2.40445 5.44546 2.59766C4.93397 2.79719 4.50017 3.06414 4.06799 3.49852C3.63543 3.93281 3.36973 4.36867 3.17052 4.88234C2.97768 5.37922 2.84651 5.94719 2.80926 6.77852C2.77217 7.61187 2.76245 7.87828 2.76245 10.0001C2.76245 12.1219 2.77178 12.3873 2.80942 13.2206C2.84752 14.0523 2.97854 14.6201 3.17068 15.1168C3.36942 15.6307 3.63512 16.0666 4.06745 16.5008C4.49954 16.9354 4.93335 17.203 5.44445 17.4025C5.93922 17.5957 6.50435 17.7273 7.332 17.7655C8.16143 17.8034 8.42627 17.8127 10.5379 17.8127C12.6499 17.8127 12.9141 17.8034 13.7435 17.7655C14.5713 17.7273 15.1369 17.5957 15.6317 17.4025C16.143 17.203 16.5761 16.9354 17.0082 16.5008C17.4407 16.0666 17.7063 15.6307 17.9056 15.117C18.0968 14.6201 18.228 14.0522 18.2669 13.2208C18.3041 12.3875 18.3139 12.1219 18.3139 10.0001C18.3139 7.87828 18.3041 7.61203 18.2669 6.77867C18.228 5.94695 18.0968 5.3793 17.9056 4.88258C17.7063 4.36867 17.4407 3.93281 17.0082 3.49852C16.5757 3.06398 16.1431 2.79703 15.6312 2.59773C15.1355 2.40445 14.5702 2.27273 13.7424 2.23469C12.9129 2.1968 12.6489 2.1875 10.5364 2.1875H10.5389ZM9.8413 3.59539C10.0484 3.59508 10.2794 3.59539 10.5389 3.59539C12.615 3.59539 12.8611 3.60289 13.6809 3.64031C14.4391 3.67516 14.8506 3.80242 15.1247 3.90938C15.4875 4.05094 15.7462 4.22023 16.0182 4.49375C16.2904 4.76719 16.4588 5.02758 16.6001 5.39219C16.7065 5.66719 16.8334 6.08063 16.8679 6.84234C16.9051 7.66594 16.9132 7.91328 16.9132 9.99828C16.9132 12.0833 16.9051 12.3307 16.8679 13.1542C16.8332 13.9159 16.7065 14.3294 16.6001 14.6045C16.4592 14.9691 16.2904 15.2287 16.0182 15.502C15.7461 15.7754 15.4877 15.9446 15.1247 16.0863C14.8509 16.1937 14.4391 16.3206 13.6809 16.3555C12.8612 16.3929 12.615 16.401 10.5389 16.401C8.46259 16.401 8.21649 16.3929 7.39685 16.3555C6.63872 16.3203 6.22723 16.193 5.9529 16.0861C5.59009 15.9445 5.33084 15.7752 5.05869 15.5018C4.78654 15.2284 4.61812 14.9686 4.47684 14.6038C4.37039 14.3288 4.24357 13.9153 4.20904 13.1536C4.1718 12.33 4.16433 12.0827 4.16433 9.99633C4.16433 7.91 4.1718 7.66398 4.20904 6.84039C4.24372 6.07867 4.37039 5.66523 4.47684 5.38984C4.61781 5.02523 4.78654 4.76484 5.05877 4.49141C5.331 4.21797 5.59009 4.04867 5.95298 3.9068C6.22707 3.79937 6.63872 3.67242 7.39685 3.63742C8.11416 3.60484 8.39214 3.59508 9.8413 3.59344V3.59539ZM14.6895 4.89258C14.1744 4.89258 13.7564 5.31211 13.7564 5.82977C13.7564 6.34734 14.1744 6.76727 14.6895 6.76727C15.2047 6.76727 15.6226 6.34734 15.6226 5.82977C15.6226 5.31219 15.2047 4.89227 14.6895 4.89227V4.89258ZM10.5389 5.98797C8.33367 5.98797 6.54572 7.78438 6.54572 10.0001C6.54572 12.2158 8.33367 14.0113 10.5389 14.0113C12.7441 14.0113 14.5314 12.2158 14.5314 10.0001C14.5314 7.78445 12.744 5.98797 10.5387 5.98797H10.5389ZM10.5389 7.39586C11.9703 7.39586 13.1308 8.56172 13.1308 10.0001C13.1308 11.4383 11.9703 12.6043 10.5389 12.6043C9.10743 12.6043 7.94698 11.4383 7.94698 10.0001C7.94698 8.56172 9.10735 7.39586 10.5389 7.39586Z" fill="white"/>
</g>
<defs>
<radialGradient id="paint0_radial_11_94" cx="0" cy="0" r="1" gradientUnits="userSpaceOnUse" gradientTransform="translate(5.87274 21.5404) rotate(-90) scale(19.8215 18.3487)">
<stop stop-color="#FFDD55"/>
<stop offset="0.1" stop-color="#FFDD55"/>
<stop offset="0.5" stop-color="#FF543E"/>
<stop offset="1" stop-color="#C837AB"/>
</radialGradient>
<radialGradient id="paint1_radial_11_94" cx="0" cy="0" r="1" gradientUnits="userSpaceOnUse" gradientTransform="translate(-2.74903 1.4407) rotate(78.7329) scale(8.85871 36.3571)">
<stop stop-color="#3771C8"/>
<stop offset="0.128" stop-color="#3771C8"/>
<stop offset="1" stop-color="#6600FF" stop-opacity="0"/>
</radialGradient>
<clipPath id="clip0_11_94">
<rect width="19.9058" height="20" fill="white" transform="translate(0.585266)"/>
</clipPath>
</defs>
</svg>
