<svg width="37" height="37" viewBox="0 0 37 37" fill="none" xmlns="http://www.w3.org/2000/svg">
<g clip-path="url(#clip0_1_36)">
<path d="M30.7731 25.1818C30.7731 25.0097 30.7575 24.8845 30.7262 24.8063C30.6949 24.7281 30.5541 24.599 30.3038 24.4191C30.0535 24.2392 29.7367 24.0437 29.3534 23.8325C28.9701 23.6213 28.5986 23.414 28.2387 23.2106C27.8789 23.0072 27.523 22.8117 27.171 22.6239C26.819 22.4362 26.5961 22.3189 26.5022 22.2719C26.424 22.225 26.2754 22.1233 26.0563 21.9669C25.8373 21.8104 25.6418 21.6931 25.4697 21.6149C25.2976 21.5366 25.1333 21.4975 24.9769 21.4975C24.7422 21.4975 24.4567 21.6579 24.1203 21.9786C23.784 22.2993 23.475 22.6513 23.1934 23.0346C22.9118 23.4179 22.6107 23.7699 22.2899 24.0906C21.9692 24.4113 21.7072 24.5717 21.5038 24.5717C21.3943 24.5717 21.2652 24.5443 21.1166 24.4895C20.968 24.4348 20.8468 24.3839 20.7529 24.337C20.659 24.2901 20.526 24.2157 20.354 24.1141C20.1819 24.0124 20.0724 23.9459 20.0254 23.9146C18.4766 23.0541 17.1468 22.0646 16.0361 20.9461C14.9253 19.8275 13.9319 18.4938 13.0558 16.945C13.0245 16.8981 12.958 16.7886 12.8564 16.6165C12.7547 16.4444 12.6804 16.3114 12.6334 16.2175C12.5865 16.1237 12.5356 16.0024 12.4809 15.8538C12.4261 15.7052 12.3988 15.5761 12.3988 15.4666C12.3988 15.2632 12.5591 15.0012 12.8798 14.6805C13.2005 14.3598 13.5525 14.0586 13.9358 13.777C14.3191 13.4954 14.6711 13.1864 14.9918 12.8501C15.3125 12.5137 15.4729 12.2282 15.4729 11.9935C15.4729 11.8371 15.4338 11.6728 15.3556 11.5007C15.2773 11.3287 15.16 11.1331 15.0036 10.9141C14.8471 10.6951 14.7454 10.5464 14.6985 10.4682C14.6516 10.3743 14.5342 10.1514 14.3465 9.79941C14.1588 9.44741 13.9632 9.0915 13.7598 8.73168C13.5564 8.37185 13.3492 8.0003 13.138 7.61701C12.9268 7.23372 12.7312 6.91692 12.5513 6.66661C12.3714 6.4163 12.2423 6.2755 12.1641 6.24421C12.0859 6.21292 11.9607 6.19728 11.7886 6.19728C11.0377 6.19728 10.2477 6.36937 9.4185 6.71355C8.69885 7.04208 8.07308 7.78128 7.54117 8.93114C7.00926 10.081 6.7433 11.1018 6.7433 11.9935C6.7433 12.2439 6.76286 12.5098 6.80197 12.7914C6.84108 13.073 6.88019 13.3116 6.9193 13.5071C6.95841 13.7027 7.02881 13.9608 7.1305 14.2815C7.23219 14.6022 7.31041 14.833 7.36517 14.9738C7.41992 15.1146 7.5177 15.3727 7.6585 15.7482C7.7993 16.1237 7.88534 16.3583 7.91663 16.4522C8.8553 19.0179 10.5488 21.5249 12.9972 23.9733C15.4455 26.4216 17.9525 28.1151 20.5182 29.0538C20.6121 29.0851 20.8468 29.1711 21.2222 29.3119C21.5977 29.4527 21.8558 29.5505 21.9966 29.6053C22.1374 29.66 22.3682 29.7382 22.6889 29.8399C23.0096 29.9416 23.2677 30.012 23.4633 30.0511C23.6588 30.0902 23.8974 30.1293 24.179 30.1685C24.4606 30.2076 24.7266 30.2271 24.9769 30.2271C25.8686 30.2271 26.8894 29.9612 28.0393 29.4293C29.1891 28.8973 29.9283 28.2716 30.2569 27.5519C30.6011 26.7228 30.7731 25.9327 30.7731 25.1818ZM36.7806 6.94821V29.4762C36.7806 31.3379 36.1196 32.9297 34.7977 34.2516C33.4757 35.5736 31.8839 36.2346 30.0222 36.2346H7.49423C5.63255 36.2346 4.04072 35.5736 2.71877 34.2516C1.39682 32.9297 0.73584 31.3379 0.73584 29.4762V6.94821C0.73584 5.08652 1.39682 3.4947 2.71877 2.17275C4.04072 0.850796 5.63255 0.189819 7.49423 0.189819H30.0222C31.8839 0.189819 33.4757 0.850796 34.7977 2.17275C36.1196 3.4947 36.7806 5.08652 36.7806 6.94821Z" fill="black"/>
</g>
<defs>
<clipPath id="clip0_1_36">
<rect width="36.0448" height="36.0448" fill="white" transform="translate(0.73584 0.189819)"/>
</clipPath>
</defs>
</svg>
